<?xml version="1.0" encoding="UTF-8"?>
<svg width="732px" height="206px" viewBox="0 0 732 206" version="1.1" xmlns="http://www.w3.org/2000/svg" xmlns:xlink="http://www.w3.org/1999/xlink">
    <!-- Generator: Sketch 44.1 (41455) - http://www.bohemiancoding.com/sketch -->
    <title>Group</title>
    <desc>Created with Sketch.</desc>
    <defs></defs>
    <g id="Page-1" stroke="none" stroke-width="1" fill="none" fill-rule="evenodd">
        <g id="Group" fill-rule="nonzero" fill="#000000">
            <polygon id="XMLID_234_" points="119.8399 2.64688279 108.248379 2.64688279 108.248379 80.1366584 137.637905 80.1366584 137.637905 70.3705736 119.8399 70.3705736"></polygon>
            <rect id="XMLID_233_" x="0" y="2.64688279" width="11.5002494" height="77.5810474"></rect>
            <g id="XMLID_230_" transform="translate(21.905237, 0.000000)">
                <path d="M55.0369077,38.0603491 L26.4688279,33.1316708 C18.801995,31.8538653 14.8773067,28.6593516 14.8773067,23.6394015 C14.8773067,15.8812968 23.1830424,10.2224439 34.59202,10.2224439 C49.6518703,10.2224439 57.6837905,14.6947631 58.5965087,23.5481297 L58.5965087,23.913217 L71.19202,23.913217 L71.19202,23.4568579 C70.0054863,3.559601 49.1955112,0.638902743 36.8738155,0.638902743 C26.4688279,0.638902743 17.8892768,2.73815461 12.0478803,6.84538653 C6.11521197,10.9526185 3.01197007,16.9765586 3.01197007,24.3695761 C3.01197007,42.4413965 21.1750623,44.5406484 37.2389027,46.4573566 C50.3820449,48.0089776 61.6997506,49.286783 61.6997506,58.4139651 C61.6997506,66.9935162 52.2074813,72.6523691 37.4214464,72.6523691 C22.7266833,72.6523691 13.4169576,66.6284289 13.1431421,56.8623441 L13.1431421,56.405985 L0.547630923,56.405985 L0.547630923,56.8623441 C1.27780549,65.3506234 4.74613466,71.7396509 10.9526185,76.0294264 C16.9765586,80.1366584 25.6473815,82.2359102 36.7825436,82.2359102 C48.0089776,82.2359102 57.3187032,79.9541147 63.7990025,75.6643392 C70.2793017,71.2832918 73.6563591,64.9855362 73.6563591,57.3187032 C73.5650873,46.9137157 66.9935162,40.159601 55.0369077,38.0603491" id="XMLID_232_"></path>
            </g>
            <path d="M176.063342,50.838404 L163.650374,50.838404 L169.856858,16.3376559 L176.063342,50.838404 Z M163.92419,2.64688279 L146.856359,80.2279302 L158.44788,80.2279302 L161.916209,60.6957606 L177.706234,60.6957606 L181.174564,80.2279302 L192.766085,80.2279302 L176.97606,2.64688279 L163.92419,2.64688279 Z" id="XMLID_227_"></path>
            <polygon id="XMLID_226_" points="268.24788 67.3586035 221.973067 2.82942643 221.790524 2.64688279 206.091771 2.64688279 206.091771 80.1366584 217.957107 80.1366584 217.957107 15.4249377 264.323192 79.9541147 264.414464 80.1366584 280.204489 80.1366584 280.204489 2.64688279 268.24788 2.64688279"></polygon>
            <g id="XMLID_201_" transform="translate(297.546135, 1.825436)">
                <path d="M108.887282,35.5047382 C99.121197,25.3735661 98.2084788,22.2703242 98.2084788,17.2503741 C98.2084788,11.682793 99.9426434,9.30972569 104.141147,9.30972569 C107.79202,9.30972569 109.617456,11.4089776 109.617456,15.7900249 L109.617456,22.2703242 L120.478803,22.2703242 L120.478803,14.6034913 C120.478803,9.67481297 119.474813,6.57157107 117.284289,4.4723192 C114.181047,1.64289277 109.708728,0.0912718204 104.597506,0.0912718204 C92.3670823,0.0912718204 86.7082294,5.93266833 86.7082294,18.5281796 C86.7082294,23.4568579 87.8947631,27.6553616 90.4503741,31.7625935 C92.7321696,35.5047382 95.9266833,38.7905237 99.3037406,42.167581 C110.073815,52.846384 110.530175,54.9456359 110.530175,61.4259352 C110.530175,67.2673317 108.613466,69.8229426 103.958603,69.8229426 C99.2124688,69.8229426 98.2084788,65.5331671 98.2084788,61.9735661 L98.2084788,55.2194514 L86.7082294,55.2194514 L86.7082294,64.8029925 C86.7082294,73.9301746 92.7321696,78.9501247 103.593516,78.9501247 C115.732668,78.9501247 121.391521,72.8349127 121.391521,59.6004988 C121.300249,50.2907731 119.292269,46.4573566 108.887282,35.5047382" id="XMLID_225_"></path>
                <path d="M64.2553616,39.6119701 C64.2553616,48.1002494 62.0648379,54.8543641 57.8663342,59.7830424 C52.6638404,65.8069825 44.1755611,68.8189526 32.7665835,68.8189526 L12.4129676,68.8189526 L12.4129676,10.4962594 L30.1197007,10.4962594 C54.3067332,10.4049875 64.2553616,18.8932668 64.2553616,39.6119701 M30.7586035,0.821446384 L0.456359102,0.821446384 L0.456359102,78.4024938 L32.3102244,78.4024938 C47.0049875,78.4024938 58.2314214,75.0254364 65.8069825,68.4538653 C73.1087282,62.0648379 76.8508728,52.6638404 76.8508728,40.6159601 C76.8508728,13.0518703 62.6124688,0.821446384 30.7586035,0.821446384" id="XMLID_222_"></path>
                <path d="M185.829426,70.5531172 L233.929676,70.5531172 L233.929676,31.8538653 C233.929676,19.6234414 227.358105,12.8693267 216.040399,12.8693267 L185.920698,12.8693267 L185.920698,70.5531172 L185.829426,70.5531172 Z M174.329177,79.7715711 L174.329177,3.65087282 L220.786534,3.65087282 C231.282793,3.65087282 238.401995,7.94064838 242.235411,15.6074813 C243.787032,18.7107232 245.247382,22.8179551 245.247382,32.4927681 L245.247382,79.7715711 L174.329177,79.7715711 Z" id="XMLID_203_"></path>
            </g>
            <polygon id="XMLID_200_" points="555.206484 5.47630923 555.206484 14.6947631 564.881297 14.6947631 564.881297 46.0922693 576.56409 46.0922693 576.56409 5.47630923"></polygon>
            <polygon id="XMLID_199_" points="592.171571 5.47630923 592.171571 14.6947631 601.846384 14.6947631 601.846384 46.0922693 613.620449 46.0922693 613.620449 5.47630923"></polygon>
            <g id="XMLID_192_" transform="translate(20.079800, 5.476309)">
                <path d="M677.145636,45.6359102 C677.145636,45.6359102 696.860349,45.3620948 703.340648,35.4134663 C709.273317,26.1950125 708.999501,8.4882793 708.908229,0.547630923 L695.765087,0.547630923 C696.221446,8.12319202 696.677805,23.2743142 692.022943,29.7546135 C686.090274,38.1516209 668.566085,37.9690773 668.566085,37.9690773 L625.759601,0.456359102 L610.882294,0.456359102 L610.608479,1.27780549 L635.890773,23.6394015 C601.298753,26.0124688 607.779052,76.4857855 607.779052,76.4857855 L620.283292,76.4857855 C620.009476,68.2713217 618.457855,56.2234414 622.747631,45.4533666 C628.771571,30.3022444 643.557606,30.3935162 643.557606,30.3935162 L695.4,76.4857855 L711.646384,76.4857855 L711.828928,75.755611 L677.145636,45.6359102 Z" id="XMLID_198_"></path>
                <path d="M36.0523691,162.46384 C49.1955112,162.46384 58.3226933,168.122693 58.3226933,176.245885 C58.3226933,184.277805 49.1955112,189.936658 36.0523691,189.936658 C22.361596,189.936658 13.1431421,184.460349 13.1431421,176.245885 C13.0518703,168.213965 22.5441397,162.46384 36.0523691,162.46384 M36.0523691,127.32419 C48.8304239,127.32419 56.1321696,131.887781 56.1321696,139.828429 C56.1321696,146.856359 47.278803,152.42394 36.0523691,152.42394 C24.5521197,152.42394 15.5162095,146.856359 15.5162095,139.828429 C15.4249377,135.173566 18.0718204,127.32419 36.0523691,127.32419 M52.1162095,156.987531 C61.9735661,154.614464 68.7276808,147.312718 68.7276808,138.733167 C68.7276808,125.042394 56.7710723,117.193017 36.0523691,117.193017 C25.5561097,117.193017 17.3416459,119.018454 11.5915212,122.760599 C5.84139651,126.502743 2.82942643,131.887781 2.82942643,138.824439 C2.82942643,147.312718 9.49226933,154.614464 19.1670823,157.078803 C13.8733167,157.991521 9.40099751,160.273317 6.02394015,163.650374 C2.46433915,167.301247 0.456359102,171.95611 0.456359102,176.793516 C0.456359102,184.186534 4.10723192,190.301746 10.9526185,194.408978 C17.2503741,198.151122 25.921197,200.159102 35.9610973,200.159102 C46.0922693,200.159102 54.6718204,198.151122 60.9695761,194.408978 C67.8149626,190.301746 71.4658354,184.186534 71.4658354,176.793516 C71.5571072,166.844888 63.6164589,158.904239 52.1162095,156.987531" id="XMLID_194_"></path>
            </g>
            <rect id="XMLID_190_" x="105.053865" y="166.753616" width="113.268329" height="10.1311721"></rect>
            <g id="XMLID_186_" transform="translate(224.528678, 124.129676)">
                <path d="M19.8972569,0.821446384 C15.4249377,4.65486284 8.21446384,9.30972569 1.09526185,13.0518703 L0.821446384,13.1431421 L0.821446384,25.3735661 L1.46034913,25.0997506 C6.38902743,22.8179551 13.7820449,18.5281796 18.8932668,14.4209476 L18.8932668,79.4064838 L30.5760599,79.4064838 L30.5760599,0.730174564 L19.9885287,0.730174564 L19.8972569,0.821446384 Z" id="XMLID_189_"></path>
                <path d="M77.4897756,27.7466334 C69.0927681,27.7466334 64.1640898,31.7625935 61.6084788,34.2269327 L62.9775561,10.678803 L97.0219451,10.678803 L97.0219451,0.638902743 L52.3900249,0.638902743 L50.2907731,47.8264339 L61.3346633,47.8264339 L61.517207,47.278803 C62.0648379,45.5446384 62.7037406,43.3541147 64.9855362,41.163591 C67.5411471,38.60798 71.1007481,37.2389027 75.1167082,37.2389027 C84.0613466,37.2389027 89.3551122,43.3541147 89.3551122,53.5765586 C89.3551122,56.4972569 88.6249377,71.0094763 74.3865337,71.0094763 C65.9895262,71.0094763 62.0648379,65.7157107 61.8822943,60.4219451 L61.8822943,59.965586 L49.286783,59.965586 L49.286783,60.4219451 C49.834414,73.0174564 59.0528678,81.0493766 72.9261845,81.0493766 C89.5376559,81.0493766 101.129177,69.8229426 101.129177,53.7591022 C101.220449,40.8897756 93.8274314,27.7466334 77.4897756,27.7466334" id="XMLID_188_"></path>
            </g>
            <rect id="XMLID_185_" x="337.43192" y="190.210474" width="13.234414" height="13.234414"></rect>
            <g id="XMLID_180_" transform="translate(360.523691, 122.304239)">
                <path d="M21.0837905,43.1715711 C25.0084788,40.159601 30.484788,38.4254364 36.6,38.4254364 C42.715212,38.4254364 48.1915212,40.0683292 52.1162095,43.1715711 C56.1321696,46.3660848 58.3226933,50.7471322 58.3226933,55.8583541 C58.3226933,66.080798 49.3780549,73.2 36.6,73.2 C23.8219451,73.2 14.8773067,66.080798 14.8773067,55.8583541 C14.8773067,50.7471322 16.9765586,46.3660848 21.0837905,43.1715711 M61.2433915,35.4134663 C55.401995,30.8498753 47.278803,28.3855362 38.3341646,28.3855362 C28.0204489,28.3855362 20.0798005,31.4887781 13.3256858,38.2428928 C13.6907731,29.2982544 16.0638404,22.2703242 20.353616,17.4329177 C24.4608479,12.8693267 30.3022444,10.4962594 37.1476309,10.4962594 C49.0129676,10.4962594 55.2194514,14.5122195 56.5885287,23.2743142 L56.6798005,23.6394015 L69.2753117,23.6394015 L69.2753117,23.1830424 C68.4538653,8.9446384 56.953616,0.365087282 38.3341646,0.365087282 C12.9605985,0.365087282 0.638902743,14.4209476 0.638902743,43.4453865 C0.638902743,55.8583541 3.37705736,65.5331671 8.9446384,72.19601 C14.9685786,79.5890274 24.3695761,83.3311721 36.7825436,83.3311721 C57.7750623,83.3311721 70.8269327,72.5610973 70.8269327,55.3107232 C70.8269327,47.1875312 67.5411471,40.2508728 61.2433915,35.4134663" id="XMLID_182_"></path>
            </g>
            <rect id="XMLID_179_" x="442.029426" y="190.210474" width="13.234414" height="13.234414"></rect>
            <g id="XMLID_172_" transform="translate(469.137157, 122.304239)">
                <path d="M54.398005,46.1835411 C62.1561097,38.4254364 65.9895262,31.1236908 65.9895262,24.0044888 C65.9895262,17.4329177 63.2513716,11.5915212 58.3226933,7.48428928 C52.7551122,2.82942643 44.5406484,0.365087282 34.4094763,0.365087282 C25.3735661,0.365087282 17.6154613,2.64688279 11.8653367,7.02793017 C5.93266833,11.5915212 2.64688279,17.9805486 2.37306733,25.6473815 L2.37306733,26.1037406 L15.6987531,26.1037406 L15.6987531,25.6473815 C15.6987531,16.246384 23.1830424,10.4962594 35.1396509,10.4962594 C46.0922693,10.4962594 53.4852868,16.5201995 53.4852868,25.5561097 C53.4852868,35.9610973 38.2428928,48.8304239 1.00399002,70.0054863 L0.730174564,70.0967581 L0.730174564,81.2319202 L68.636409,81.2319202 L68.636409,71.1007481 L18.7107232,71.1007481 C34.8658354,62.1561097 46.5486284,54.0329177 54.398005,46.1835411" id="XMLID_178_"></path>
                <path d="M89.6289277,46.4573566 C89.6289277,45.6359102 89.6289277,44.8144638 89.6289277,44.0842893 C89.6289277,22.0877805 90.0852868,10.5875312 99.8513716,10.5875312 C109.617456,10.5875312 110.073815,22.0877805 110.073815,44.0842893 C110.073815,44.9057357 110.073815,45.6359102 110.073815,46.4573566 C110.073815,55.8583541 110.165087,66.5371571 105.601496,71.0094763 C104.141147,72.5610973 102.224439,73.2912718 99.7600998,73.2912718 C97.3870324,73.2912718 95.4703242,72.5610973 93.9187032,71.0094763 C89.6289277,66.5371571 89.6289277,55.8583541 89.6289277,46.4573566 M99.8513716,1.00399002 C90.1765586,1.00399002 83.9700748,5.01995012 81.0493766,13.3256858 C78.4024938,20.7187032 78.4024938,30.5760599 78.4024938,40.9810474 L78.4024938,42.2588529 C78.4024938,52.2074813 78.4024938,62.4299252 81.0493766,70.0054863 C84.0613466,78.5850374 90.1765586,82.6922693 99.8513716,82.6922693 C109.526185,82.6922693 115.641397,78.4937656 118.653367,70.0054863 C121.300249,62.4299252 121.300249,52.2074813 121.300249,42.2588529 L121.300249,41.0723192 C121.300249,30.6673317 121.300249,20.8099751 118.653367,13.4169576 C115.732668,5.11122195 109.617456,1.00399002 99.8513716,1.00399002" id="XMLID_175_"></path>
                <path d="M152.42394,2.64688279 C147.951621,6.48029925 140.741147,11.1351621 133.621945,14.8773067 L133.34813,14.9685786 L133.34813,27.1990025 L133.987032,26.925187 C138.915711,24.6433915 146.308728,20.353616 151.41995,16.246384 L151.41995,81.2319202 L163.102743,81.2319202 L163.102743,2.55561097 L152.515212,2.55561097 L152.42394,2.64688279 Z" id="XMLID_174_"></path>
            </g>
            <polygon id="XMLID_171_" points="645.565586 124.768579 645.565586 135.629925 697.773067 135.629925 659.895262 203.53616 674.590025 203.53616 711.281297 135.35611 711.281297 135.264838 711.281297 124.768579"></polygon>
        </g>
    </g>
</svg>