
<svg width="802px" height="226px" viewBox="0 0 802 226" version="1.1" xmlns="http://www.w3.org/2000/svg" xmlns:xlink="http://www.w3.org/1999/xlink">
    <!-- Generator: Sketch 44.1 (41455) - http://www.bohemiancoding.com/sketch -->
    <desc>Created with Sketch.</desc>
    <defs></defs>
    <g id="Page-1" stroke="none" stroke-width="1" fill="none" fill-rule="evenodd">
        <g id="Group" fill-rule="nonzero" fill="#000000">
            <polygon id="XMLID_234_" points="131.3 2.9 118.6 2.9 118.6 87.8 150.8 87.8 150.8 77.1 131.3 77.1"></polygon>
            <rect id="XMLID_233_" x="0" y="2.9" width="12.6" height="85"></rect>
            <g id="XMLID_230_" transform="translate(24.000000, 0.000000)">
                <path d="M60.3,41.7 L29,36.3 C20.6,34.9 16.3,31.4 16.3,25.9 C16.3,17.4 25.4,11.2 37.9,11.2 C54.4,11.2 63.2,16.1 64.2,25.8 L64.2,26.2 L78,26.2 L78,25.7 C76.7,3.9 53.9,0.7 40.4,0.7 C29,0.7 19.6,3 13.2,7.5 C6.7,12 3.3,18.6 3.3,26.7 C3.3,46.5 23.2,48.8 40.8,50.9 C55.2,52.6 67.6,54 67.6,64 C67.6,73.4 57.2,79.6 41,79.6 C24.9,79.6 14.7,73 14.4,62.3 L14.4,61.8 L0.6,61.8 L0.6,62.3 C1.4,71.6 5.2,78.6 12,83.3 C18.6,87.8 28.1,90.1 40.3,90.1 C52.6,90.1 62.8,87.6 69.9,82.9 C77,78.1 80.7,71.2 80.7,62.8 C80.6,51.4 73.4,44 60.3,41.7" id="XMLID_232_"></path>
            </g>
            <path d="M192.9,55.7 L179.3,55.7 L186.1,17.9 L192.9,55.7 Z M179.6,2.9 L160.9,87.9 L173.6,87.9 L177.4,66.5 L194.7,66.5 L198.5,87.9 L211.2,87.9 L193.9,2.9 L179.6,2.9 Z" id="XMLID_227_"></path>
            <polygon id="XMLID_226_" points="293.9 73.8 243.2 3.1 243 2.9 225.8 2.9 225.8 87.8 238.8 87.8 238.8 16.9 289.6 87.6 289.7 87.8 307 87.8 307 2.9 293.9 2.9"></polygon>
            <g id="XMLID_201_" transform="translate(326.000000, 2.000000)">
                <path d="M119.3,38.9 C108.6,27.8 107.6,24.4 107.6,18.9 C107.6,12.8 109.5,10.2 114.1,10.2 C118.1,10.2 120.1,12.5 120.1,17.3 L120.1,24.4 L132,24.4 L132,16 C132,10.6 130.9,7.2 128.5,4.9 C125.1,1.8 120.2,0.1 114.6,0.1 C101.2,0.1 95,6.5 95,20.3 C95,25.7 96.3,30.3 99.1,34.8 C101.6,38.9 105.1,42.5 108.8,46.2 C120.6,57.9 121.1,60.2 121.1,67.3 C121.1,73.7 119,76.5 113.9,76.5 C108.7,76.5 107.6,71.8 107.6,67.9 L107.6,60.5 L95,60.5 L95,71 C95,81 101.6,86.5 113.5,86.5 C126.8,86.5 133,79.8 133,65.3 C132.9,55.1 130.7,50.9 119.3,38.9" id="XMLID_225_"></path>
                <path d="M70.4,43.4 C70.4,52.7 68,60.1 63.4,65.5 C57.7,72.1 48.4,75.4 35.9,75.4 L13.6,75.4 L13.6,11.5 L33,11.5 C59.5,11.4 70.4,20.7 70.4,43.4 M33.7,0.9 L0.5,0.9 L0.5,85.9 L35.4,85.9 C51.5,85.9 63.8,82.2 72.1,75 C80.1,68 84.2,57.7 84.2,44.5 C84.2,14.3 68.6,0.9 33.7,0.9" id="XMLID_222_"></path>
                <path d="M203.6,77.3 L256.3,77.3 L256.3,34.9 C256.3,21.5 249.1,14.1 236.7,14.1 L203.7,14.1 L203.7,77.3 L203.6,77.3 Z M191,87.4 L191,4 L241.9,4 C253.4,4 261.2,8.7 265.4,17.1 C267.1,20.5 268.7,25 268.7,35.6 L268.7,87.4 L191,87.4 Z" id="XMLID_203_"></path>
            </g>
            <polygon id="XMLID_200_" points="608.3 6 608.3 16.1 618.9 16.1 618.9 50.5 631.7 50.5 631.7 6"></polygon>
            <polygon id="XMLID_199_" points="648.8 6 648.8 16.1 659.4 16.1 659.4 50.5 672.3 50.5 672.3 6"></polygon>
            <g id="XMLID_192_" transform="translate(22.000000, 6.000000)">
                <path d="M741.9,50 C741.9,50 763.5,49.7 770.6,38.8 C777.1,28.7 776.8,9.3 776.7,0.6 L762.3,0.6 C762.8,8.9 763.3,25.5 758.2,32.6 C751.7,41.8 732.5,41.6 732.5,41.6 L685.6,0.5 L669.3,0.5 L669,1.4 L696.7,25.9 C658.8,28.5 665.9,83.8 665.9,83.8 L679.6,83.8 C679.3,74.8 677.6,61.6 682.3,49.8 C688.9,33.2 705.1,33.3 705.1,33.3 L761.9,83.8 L779.7,83.8 L779.9,83 L741.9,50 Z" id="XMLID_198_"></path>
                <path d="M39.5,178 C53.9,178 63.9,184.2 63.9,193.1 C63.9,201.9 53.9,208.1 39.5,208.1 C24.5,208.1 14.4,202.1 14.4,193.1 C14.3,184.3 24.7,178 39.5,178 M39.5,139.5 C53.5,139.5 61.5,144.5 61.5,153.2 C61.5,160.9 51.8,167 39.5,167 C26.9,167 17,160.9 17,153.2 C16.9,148.1 19.8,139.5 39.5,139.5 M57.1,172 C67.9,169.4 75.3,161.4 75.3,152 C75.3,137 62.2,128.4 39.5,128.4 C28,128.4 19,130.4 12.7,134.5 C6.4,138.6 3.1,144.5 3.1,152.1 C3.1,161.4 10.4,169.4 21,172.1 C15.2,173.1 10.3,175.6 6.6,179.3 C2.7,183.3 0.5,188.4 0.5,193.7 C0.5,201.8 4.5,208.5 12,213 C18.9,217.1 28.4,219.3 39.4,219.3 C50.5,219.3 59.9,217.1 66.8,213 C74.3,208.5 78.3,201.8 78.3,193.7 C78.4,182.8 69.7,174.1 57.1,172" id="XMLID_194_"></path>
            </g>
            <rect id="XMLID_190_" x="115.1" y="182.7" width="124.1" height="11.1"></rect>
            <g id="XMLID_186_" transform="translate(246.000000, 136.000000)">
                <path d="M21.8,0.9 C16.9,5.1 9,10.2 1.2,14.3 L0.9,14.4 L0.9,27.8 L1.6,27.5 C7,25 15.1,20.3 20.7,15.8 L20.7,87 L33.5,87 L33.5,0.8 L21.9,0.8 L21.8,0.9 Z" id="XMLID_189_"></path>
                <path d="M84.9,30.4 C75.7,30.4 70.3,34.8 67.5,37.5 L69,11.7 L106.3,11.7 L106.3,0.7 L57.4,0.7 L55.1,52.4 L67.2,52.4 L67.4,51.8 C68,49.9 68.7,47.5 71.2,45.1 C74,42.3 77.9,40.8 82.3,40.8 C92.1,40.8 97.9,47.5 97.9,58.7 C97.9,61.9 97.1,77.8 81.5,77.8 C72.3,77.8 68,72 67.8,66.2 L67.8,65.7 L54,65.7 L54,66.2 C54.6,80 64.7,88.8 79.9,88.8 C98.1,88.8 110.8,76.5 110.8,58.9 C110.9,44.8 102.8,30.4 84.9,30.4" id="XMLID_188_"></path>
            </g>
            <rect id="XMLID_185_" x="369.7" y="208.4" width="14.5" height="14.5"></rect>
            <g id="XMLID_180_" transform="translate(395.000000, 134.000000)">
                <path d="M23.1,47.3 C27.4,44 33.4,42.1 40.1,42.1 C46.8,42.1 52.8,43.9 57.1,47.3 C61.5,50.8 63.9,55.6 63.9,61.2 C63.9,72.4 54.1,80.2 40.1,80.2 C26.1,80.2 16.3,72.4 16.3,61.2 C16.3,55.6 18.6,50.8 23.1,47.3 M67.1,38.8 C60.7,33.8 51.8,31.1 42,31.1 C30.7,31.1 22,34.5 14.6,41.9 C15,32.1 17.6,24.4 22.3,19.1 C26.8,14.1 33.2,11.5 40.7,11.5 C53.7,11.5 60.5,15.9 62,25.5 L62.1,25.9 L75.9,25.9 L75.9,25.4 C75,9.8 62.4,0.4 42,0.4 C14.2,0.4 0.7,15.8 0.7,47.6 C0.7,61.2 3.7,71.8 9.8,79.1 C16.4,87.2 26.7,91.3 40.3,91.3 C63.3,91.3 77.6,79.5 77.6,60.6 C77.6,51.7 74,44.1 67.1,38.8" id="XMLID_182_"></path>
            </g>
            <rect id="XMLID_179_" x="484.3" y="208.4" width="14.5" height="14.5"></rect>
            <g id="XMLID_172_" transform="translate(514.000000, 134.000000)">
                <path d="M59.6,50.6 C68.1,42.1 72.3,34.1 72.3,26.3 C72.3,19.1 69.3,12.7 63.9,8.2 C57.8,3.1 48.8,0.4 37.7,0.4 C27.8,0.4 19.3,2.9 13,7.7 C6.5,12.7 2.9,19.7 2.6,28.1 L2.6,28.6 L17.2,28.6 L17.2,28.1 C17.2,17.8 25.4,11.5 38.5,11.5 C50.5,11.5 58.6,18.1 58.6,28 C58.6,39.4 41.9,53.5 1.1,76.7 L0.8,76.8 L0.8,89 L75.2,89 L75.2,77.9 L20.5,77.9 C38.2,68.1 51,59.2 59.6,50.6" id="XMLID_178_"></path>
                <path d="M98.2,50.9 C98.2,50 98.2,49.1 98.2,48.3 C98.2,24.2 98.7,11.6 109.4,11.6 C120.1,11.6 120.6,24.2 120.6,48.3 C120.6,49.2 120.6,50 120.6,50.9 C120.6,61.2 120.7,72.9 115.7,77.8 C114.1,79.5 112,80.3 109.3,80.3 C106.7,80.3 104.6,79.5 102.9,77.8 C98.2,72.9 98.2,61.2 98.2,50.9 M109.4,1.1 C98.8,1.1 92,5.5 88.8,14.6 C85.9,22.7 85.9,33.5 85.9,44.9 L85.9,46.3 C85.9,57.2 85.9,68.4 88.8,76.7 C92.1,86.1 98.8,90.6 109.4,90.6 C120,90.6 126.7,86 130,76.7 C132.9,68.4 132.9,57.2 132.9,46.3 L132.9,45 C132.9,33.6 132.9,22.8 130,14.7 C126.8,5.6 120.1,1.1 109.4,1.1" id="XMLID_175_"></path>
                <path d="M167,2.9 C162.1,7.1 154.2,12.2 146.4,16.3 L146.1,16.4 L146.1,29.8 L146.8,29.5 C152.2,27 160.3,22.3 165.9,17.8 L165.9,89 L178.7,89 L178.7,2.8 L167.1,2.8 L167,2.9 Z" id="XMLID_174_"></path>
            </g>
            <polygon id="XMLID_171_" points="707.3 136.7 707.3 148.6 764.5 148.6 723 223 739.1 223 779.3 148.3 779.3 148.2 779.3 136.7"></polygon>
        </g>
    </g>
</svg>